<?xml version="1.0" encoding="UTF-8" standalone="no"?>
<!-- Created with Inkscape (http://www.inkscape.org/) -->

<svg
   version="1.1"
   id="svg2"
   xml:space="preserve"
   width="585.33331"
   height="1150.6667"
   viewBox="0 0 585.33331 1150.6667"
   xmlns="http://www.w3.org/2000/svg"
   xmlns:svg="http://www.w3.org/2000/svg"><defs
     id="defs6" /><g
     id="g8"
     transform="matrix(1.3333333,0,0,1.3333333,0,6.21e-5)"><g
       id="g10"><path
         d="M 0,0 H 439 V 863 H 0 Z"
         style="fill:#0f0f0f;fill-opacity:1;fill-rule:nonzero;stroke:none"
         id="path12" /><text
         transform="translate(81,844.69922)"
         style="font-variant:normal;font-weight:normal;font-size:14.0002px;font-family:'DejaVu Serif';-inkscape-font-specification:DejaVuSerif;writing-mode:lr-tb;fill:#f5f5f5;fill-opacity:1;fill-rule:nonzero;stroke:none"
         id="text18"><tspan
           x="0 8.2321434 14.224248 22.470392 30.702536 35.168613 42.672745 47.166821 56.15498 60.649055 69.651215 74.131294"
           y="0"
           id="tspan14">etyviz 1.0.0</tspan><tspan
           x="-3.9999957 5.744174 12.492291 20.738436 26.730539 34.976685 39.45676 50.698959 58.973103 65.665222 79.189453 87.4356 96.451752 100.91783 108.42197"
           y="-535.5"
           id="tspan16">Proto-Germanic </tspan></text><text
         transform="matrix(0.98058067,0,-0.19611615,0.98058067,195,309.19922)"
         style="font-variant:normal;font-weight:normal;font-size:14.2775px;font-family:'DejaVu Serif';-inkscape-font-specification:DejaVuSerif;writing-mode:lr-tb;fill:#f5f5f5;fill-opacity:1;fill-rule:nonzero;stroke:none"
         id="text22"><tspan
           x="0 5.354064 14.548776 22.943949 32.13866 41.290539"
           y="0"
           id="tspan20">(noun)</tspan></text><text
         transform="translate(117,332)"
         style="font-variant:normal;font-weight:bold;font-size:24.9998px;font-family:'DejaVu Serif';-inkscape-font-specification:DejaVuSerif-Bold;writing-mode:lr-tb;fill:#f5f5f5;fill-opacity:1;fill-rule:nonzero;stroke:none"
         id="text26"><tspan
           x="0 21.724789 38.199627"
           y="0"
           id="tspan24">wat</tspan></text><text
         transform="translate(166.42452,332)"
         style="font-variant:normal;font-weight:bold;font-size:24.9998px;font-family:'DejaVu Serif';-inkscape-font-specification:DejaVuSerif-Bold;writing-mode:lr-tb;fill:#f5f5f5;fill-opacity:1;fill-rule:nonzero;stroke:none"
         id="text30"><tspan
           x="0"
           y="0"
           id="tspan28">ō</tspan></text><text
         transform="translate(182.89936,332)"
         style="font-variant:normal;font-weight:bold;font-size:24.9998px;font-family:'DejaVu Serif';-inkscape-font-specification:DejaVuSerif-Bold;writing-mode:lr-tb;fill:#f5f5f5;fill-opacity:1;fill-rule:nonzero;stroke:none"
         id="text34"><tspan
           x="0"
           y="0"
           id="tspan32">r</tspan></text><text
         transform="matrix(0.98058067,0,-0.19611615,0.98058067,138,348.19922)"
         style="font-variant:normal;font-weight:normal;font-size:14.2775px;font-family:'DejaVu Serif';-inkscape-font-specification:DejaVuSerif;writing-mode:lr-tb;fill:#f5f5f5;fill-opacity:1;fill-rule:nonzero;stroke:none"
         id="text38"><tspan
           x="0 12.207266 20.630993 26.741764 35.136936"
           y="0"
           id="tspan36">water</tspan></text><text
         transform="translate(57.5,406.19922)"
         style="font-variant:normal;font-weight:normal;font-size:14.0002px;font-family:'DejaVu Serif';-inkscape-font-specification:DejaVuSerif;writing-mode:lr-tb;fill:#f5f5f5;fill-opacity:1;fill-rule:nonzero;stroke:none"
         id="text42"><tspan
           x="0 9.7441702 16.492287 24.738432 30.730536 38.976681 42.714745 56.19698 64.471123 71.93325 77.925362 82.405434 93.647629 101.92178 108.61389 122.13813 130.38428 139.40044 143.8665 151.37064"
           y="0"
           id="tspan40">Proto-West Germanic </tspan></text><text
         transform="matrix(0.98058067,0,-0.19611615,0.98058067,214.5,406.19922)"
         style="font-variant:normal;font-weight:normal;font-size:14.2775px;font-family:'DejaVu Serif';-inkscape-font-specification:DejaVuSerif;writing-mode:lr-tb;fill:#f5f5f5;fill-opacity:1;fill-rule:nonzero;stroke:none"
         id="text46"><tspan
           x="0 5.354064 14.548776 22.943949 32.13866 41.290539"
           y="0"
           id="tspan44">(noun)</tspan></text><text
         transform="translate(117,429)"
         style="font-variant:normal;font-weight:bold;font-size:24.9998px;font-family:'DejaVu Serif';-inkscape-font-specification:DejaVuSerif-Bold;writing-mode:lr-tb;fill:#f5f5f5;fill-opacity:1;fill-rule:nonzero;stroke:none"
         id="text50"><tspan
           x="0 21.724789 38.199627 49.424519 65.899353"
           y="0"
           id="tspan48">watar</tspan></text><text
         transform="matrix(0.98058067,0,-0.19611615,0.98058067,138,445.19922)"
         style="font-variant:normal;font-weight:normal;font-size:14.2775px;font-family:'DejaVu Serif';-inkscape-font-specification:DejaVuSerif;writing-mode:lr-tb;fill:#f5f5f5;fill-opacity:1;fill-rule:nonzero;stroke:none"
         id="text54"><tspan
           x="0 12.207266 20.630993 26.741764 35.136936"
           y="0"
           id="tspan52">water</tspan></text><path
         d="m 159,356.039 c 0,8.129 0,17.086 0,25.695"
         style="fill:none;stroke:#00a651;stroke-width:1;stroke-linecap:butt;stroke-linejoin:miter;stroke-miterlimit:10;stroke-dasharray:none;stroke-opacity:1"
         id="path56" /><path
         d="m 162.5,381.98 -3.5,10 -3.5,-10 z"
         style="fill:#00a651;fill-opacity:1;fill-rule:nonzero;stroke:#00a651;stroke-width:1;stroke-linecap:butt;stroke-linejoin:miter;stroke-miterlimit:10;stroke-dasharray:none;stroke-opacity:1"
         id="path58" /><text
         transform="translate(281,503.19922)"
         style="font-variant:normal;font-weight:normal;font-size:14.0002px;font-family:'DejaVu Serif';-inkscape-font-specification:DejaVuSerif;writing-mode:lr-tb;fill:#f5f5f5;fill-opacity:1;fill-rule:nonzero;stroke:none"
         id="text62"><tspan
           x="0 10.486183 19.50234 28.462496 32.970573 37.436653 44.954784 53.97094"
           y="0"
           id="tspan60">English </tspan></text><text
         transform="matrix(0.98058067,0,-0.19611615,0.98058067,340,503.19922)"
         style="font-variant:normal;font-weight:normal;font-size:14.2775px;font-family:'DejaVu Serif';-inkscape-font-specification:DejaVuSerif;writing-mode:lr-tb;fill:#f5f5f5;fill-opacity:1;fill-rule:nonzero;stroke:none"
         id="text66"><tspan
           x="0 5.354064 13.749236 22.187241 29.011887 38.2066"
           y="0"
           id="tspan64">(verb)</tspan></text><text
         transform="translate(288.5,526)"
         style="font-variant:normal;font-weight:bold;font-size:24.9998px;font-family:'DejaVu Serif';-inkscape-font-specification:DejaVuSerif-Bold;writing-mode:lr-tb;fill:#f5f5f5;fill-opacity:1;fill-rule:nonzero;stroke:none"
         id="text70"><tspan
           x="0 21.724789 38.199627 49.424519 65.174362"
           y="0"
           id="tspan68">water</tspan></text><text
         transform="translate(367.5,522.33594)"
         style="font-variant:normal;font-weight:normal;font-size:11.666px;font-family:'DejaVu Serif';-inkscape-font-specification:DejaVuSerif;writing-mode:lr-tb;fill:#f5f5f5;fill-opacity:1;fill-rule:nonzero;stroke:none"
         id="text74"><tspan
           x="0"
           y="0"
           id="tspan72">2</tspan></text><text
         transform="matrix(0.98058067,0,-0.19611615,0.98058067,237,542.19922)"
         style="font-variant:normal;font-weight:normal;font-size:14.2775px;font-family:'DejaVu Serif';-inkscape-font-specification:DejaVuSerif;writing-mode:lr-tb;fill:#f5f5f5;fill-opacity:1;fill-rule:nonzero;stroke:none"
         id="text82"><tspan
           x="0 8.3951721 16.818899 21.387701 30.568134 38.977585 48.172298 55.039776 59.608578 71.815842 80.253845 86.350342 94.788345 101.61299 106.22462 110.77915 119.97386 126.08463 134.49408 139.06288 145.17366 154.36836 162.74927 167.33234 174.98508 183.39453 187.94905"
           y="0"
           id="tspan76">To pour water into the soil</tspan><tspan
           x="54.865448 62.518188 71.712898 78.537552 85.462135 93.87159 103.0663 112.21818 121.39861 125.95314 135.14784"
           y="14.277261"
           id="tspan78">surrounding</tspan><tspan
           x="71.998154 77.352219 86.532654 91.087173 99.510902 108.70561 114.80211 122.44057 127.79464"
           y="28.554522"
           id="tspan80">(plants).</tspan></text><path
         d="m 231.887,356.121 c 16.828,9.496 33.48,21.395 46.113,35.879 21.434,24.574 34.805,58.574 42.879,86.973"
         style="fill:none;stroke:#0081c8;stroke-width:1;stroke-linecap:butt;stroke-linejoin:miter;stroke-miterlimit:10;stroke-dasharray:none;stroke-opacity:1"
         id="path84" /><path
         d="m 324.293,478.191 -0.777,10.567 -5.981,-8.742 z"
         style="fill:#0081c8;fill-opacity:1;fill-rule:nonzero;stroke:#0081c8;stroke-width:1;stroke-linecap:butt;stroke-linejoin:miter;stroke-miterlimit:10;stroke-dasharray:none;stroke-opacity:1"
         id="path86" /><text
         transform="translate(43.5,510.19922)"
         style="font-variant:normal;font-weight:normal;font-size:14.0002px;font-family:'DejaVu Serif';-inkscape-font-specification:DejaVuSerif;writing-mode:lr-tb;fill:#f5f5f5;fill-opacity:1;fill-rule:nonzero;stroke:none"
         id="text90"><tspan
           x="0 14.238248 18.704327 27.720484 36.722641 41.188717 49.462864 53.94294 64.429123 73.445282 82.405434 86.913513 91.379593 98.89772 107.91388"
           y="0"
           id="tspan88">Middle English </tspan></text><text
         transform="matrix(0.98058067,0,-0.19611615,0.98058067,156.5,510.19922)"
         style="font-variant:normal;font-weight:normal;font-size:14.2775px;font-family:'DejaVu Serif';-inkscape-font-specification:DejaVuSerif;writing-mode:lr-tb;fill:#f5f5f5;fill-opacity:1;fill-rule:nonzero;stroke:none"
         id="text94"><tspan
           x="0 5.354064 14.548776 22.943949 32.13866 41.290539"
           y="0"
           id="tspan92">(noun)</tspan></text><text
         transform="translate(81.5,533)"
         style="font-variant:normal;font-weight:bold;font-size:24.9998px;font-family:'DejaVu Serif';-inkscape-font-specification:DejaVuSerif-Bold;writing-mode:lr-tb;fill:#f5f5f5;fill-opacity:1;fill-rule:nonzero;stroke:none"
         id="text98"><tspan
           x="0 21.724789 38.199627 49.424519 65.174362"
           y="0"
           id="tspan96">water</tspan></text><text
         transform="matrix(0.98058067,0,-0.19611615,0.98058067,77,549.19922)"
         style="font-variant:normal;font-weight:normal;font-size:14.2775px;font-family:'DejaVu Serif';-inkscape-font-specification:DejaVuSerif;writing-mode:lr-tb;fill:#f5f5f5;fill-opacity:1;fill-rule:nonzero;stroke:none"
         id="text104"><tspan
           x="0 12.207266 20.630993 26.741764 35.136936 42.03297 46.601772 51.955833 56.510361 61.107716 70.288147 79.482864 84.037384"
           y="0"
           id="tspan100">water (liquid</tspan><tspan
           x="32.429764"
           y="14.277261"
           id="tspan102">H</tspan></text><text
         transform="matrix(0.98058067,0,-0.19611615,0.98058067,117.99821,563.19922)"
         style="font-variant:normal;font-weight:normal;font-size:14.2775px;font-family:'DejaVu Serif';-inkscape-font-specification:DejaVuSerif;writing-mode:lr-tb;fill:#f5f5f5;fill-opacity:1;fill-rule:nonzero;stroke:none"
         id="text108"><tspan
           x="0"
           y="0"
           id="tspan106">₂</tspan></text><text
         transform="matrix(0.98058067,0,-0.19611615,0.98058067,123.2343,563.19922)"
         style="font-variant:normal;font-weight:normal;font-size:14.2775px;font-family:'DejaVu Serif';-inkscape-font-specification:DejaVuSerif;writing-mode:lr-tb;fill:#f5f5f5;fill-opacity:1;fill-rule:nonzero;stroke:none"
         id="text112"><tspan
           x="0 11.464835"
           y="0"
           id="tspan110">O)</tspan></text><path
         d="m 149.164,453.285 c -3.352,10.141 -7.18,21.731 -10.852,32.856"
         style="fill:none;stroke:#00a651;stroke-width:1;stroke-linecap:butt;stroke-linejoin:miter;stroke-miterlimit:10;stroke-dasharray:none;stroke-opacity:1"
         id="path114" /><path
         d="m 141.598,487.352 -6.461,8.398 -0.188,-10.594 z"
         style="fill:#00a651;fill-opacity:1;fill-rule:nonzero;stroke:#00a651;stroke-width:1;stroke-linecap:butt;stroke-linejoin:miter;stroke-miterlimit:10;stroke-dasharray:none;stroke-opacity:1"
         id="path116" /><text
         transform="translate(76.5,212.19922)"
         style="font-variant:normal;font-weight:normal;font-size:14.0002px;font-family:'DejaVu Serif';-inkscape-font-specification:DejaVuSerif;writing-mode:lr-tb;fill:#f5f5f5;fill-opacity:1;fill-rule:nonzero;stroke:none"
         id="text120"><tspan
           x="0 9.7441702 16.492287 24.738432 30.730536 38.976681 43.456757 48.706848 57.723007 66.683159 74.957306 79.451385 89.937569 98.953728 105.68784 113.93398 122.89414 131.16829 139.41443 148.43059"
           y="0"
           id="tspan118">Proto-Indo-European </tspan></text><text
         transform="matrix(0.98058067,0,-0.19611615,0.98058067,230.5,212.19922)"
         style="font-variant:normal;font-weight:normal;font-size:14.2775px;font-family:'DejaVu Serif';-inkscape-font-specification:DejaVuSerif;writing-mode:lr-tb;fill:#f5f5f5;fill-opacity:1;fill-rule:nonzero;stroke:none"
         id="text124"><tspan
           x="0 5.354064"
           y="0"
           id="tspan122">()</tspan></text><text
         transform="translate(114.5,235)"
         style="font-variant:normal;font-weight:bold;font-size:24.9998px;font-family:'DejaVu Serif';-inkscape-font-specification:DejaVuSerif-Bold;writing-mode:lr-tb;fill:#f5f5f5;fill-opacity:1;fill-rule:nonzero;stroke:none"
         id="text128"><tspan
           x="0 21.724789 37.474636"
           y="0"
           id="tspan126">wéd</tspan></text><text
         transform="translate(169.22447,235)"
         style="font-variant:normal;font-weight:bold;font-size:24.9998px;font-family:'DejaVu Serif';-inkscape-font-specification:DejaVuSerif-Bold;writing-mode:lr-tb;fill:#f5f5f5;fill-opacity:1;fill-rule:nonzero;stroke:none"
         id="text132"><tspan
           x="0"
           y="0"
           id="tspan130">ō</tspan></text><text
         transform="translate(185.69931,235)"
         style="font-variant:normal;font-weight:bold;font-size:24.9998px;font-family:'DejaVu Serif';-inkscape-font-specification:DejaVuSerif-Bold;writing-mode:lr-tb;fill:#f5f5f5;fill-opacity:1;fill-rule:nonzero;stroke:none"
         id="text136"><tspan
           x="0"
           y="0"
           id="tspan134">r</tspan></text><path
         d="m 159,259.039 c 0,8.129 0,17.086 0,25.695"
         style="fill:none;stroke:#00a651;stroke-width:1;stroke-linecap:butt;stroke-linejoin:miter;stroke-miterlimit:10;stroke-dasharray:none;stroke-opacity:1"
         id="path138" /><path
         d="m 162.5,284.98 -3.5,10 -3.5,-10 z"
         style="fill:#00a651;fill-opacity:1;fill-rule:nonzero;stroke:#00a651;stroke-width:1;stroke-linecap:butt;stroke-linejoin:miter;stroke-miterlimit:10;stroke-dasharray:none;stroke-opacity:1"
         id="path140" /><text
         transform="translate(62,18.199219)"
         style="font-variant:normal;font-weight:normal;font-size:14.0002px;font-family:'DejaVu Serif';-inkscape-font-specification:DejaVuSerif;writing-mode:lr-tb;fill:#f5f5f5;fill-opacity:1;fill-rule:nonzero;stroke:none"
         id="text144"><tspan
           x="0 9.7441702 16.492287 24.738432 30.730536 38.976681 43.456757 48.706848 57.723007 66.683159 74.957306 79.451385 89.937569 98.953728 105.68784 113.93398 122.89414 131.16829 139.41443 148.43059"
           y="0"
           id="tspan142">Proto-Indo-European </tspan></text><text
         transform="matrix(0.98058067,0,-0.19611615,0.98058067,216,18.199219)"
         style="font-variant:normal;font-weight:normal;font-size:14.2775px;font-family:'DejaVu Serif';-inkscape-font-specification:DejaVuSerif;writing-mode:lr-tb;fill:#f5f5f5;fill-opacity:1;fill-rule:nonzero;stroke:none"
         id="text148"><tspan
           x="0 5.354064 12.235821 20.645269 29.05472 35.165493"
           y="0"
           id="tspan146">(root)</tspan></text><text
         transform="translate(124,41)"
         style="font-variant:normal;font-weight:bold;font-size:24.9998px;font-family:'DejaVu Serif';-inkscape-font-specification:DejaVuSerif-Bold;writing-mode:lr-tb;fill:#f5f5f5;fill-opacity:1;fill-rule:nonzero;stroke:none"
         id="text152"><tspan
           x="0 21.724789 37.474636 54.724464"
           y="0"
           id="tspan150">wed-</tspan></text><text
         transform="matrix(0.98058067,0,-0.19611615,0.98058067,138,57.199219)"
         style="font-variant:normal;font-weight:normal;font-size:14.2775px;font-family:'DejaVu Serif';-inkscape-font-specification:DejaVuSerif;writing-mode:lr-tb;fill:#f5f5f5;fill-opacity:1;fill-rule:nonzero;stroke:none"
         id="text156"><tspan
           x="0 12.207266 20.630993 26.741764 35.136936"
           y="0"
           id="tspan154">water</tspan></text><text
         transform="translate(59,115.19922)"
         style="font-variant:normal;font-weight:normal;font-size:14.0002px;font-family:'DejaVu Serif';-inkscape-font-specification:DejaVuSerif;writing-mode:lr-tb;fill:#f5f5f5;fill-opacity:1;fill-rule:nonzero;stroke:none"
         id="text160"><tspan
           x="0 9.7441702 16.492287 24.738432 30.730536 38.976681 43.456757 48.706848 57.723007 66.683159 74.957306 79.451385 89.937569 98.953728 105.68784 113.93398 122.89414 131.16829 139.41443 148.43059"
           y="0"
           id="tspan158">Proto-Indo-European </tspan></text><text
         transform="matrix(0.98058067,0,-0.19611615,0.98058067,213,115.19922)"
         style="font-variant:normal;font-weight:normal;font-size:14.2775px;font-family:'DejaVu Serif';-inkscape-font-specification:DejaVuSerif;writing-mode:lr-tb;fill:#f5f5f5;fill-opacity:1;fill-rule:nonzero;stroke:none"
         id="text164"><tspan
           x="0 5.354064 14.548776 22.943949 32.13866 41.290539"
           y="0"
           id="tspan162">(noun)</tspan></text><text
         transform="translate(122,138)"
         style="font-variant:normal;font-weight:bold;font-size:24.9998px;font-family:'DejaVu Serif';-inkscape-font-specification:DejaVuSerif-Bold;writing-mode:lr-tb;fill:#f5f5f5;fill-opacity:1;fill-rule:nonzero;stroke:none"
         id="text168"><tspan
           x="0 21.724789 38.199627 55.449459"
           y="0"
           id="tspan166">wódr</tspan></text><text
         transform="translate(188.64935,138)"
         style="font-variant:normal;font-weight:bold;font-size:24.9998px;font-family:'DejaVu Serif';-inkscape-font-specification:DejaVuSerif-Bold;writing-mode:lr-tb;fill:#f5f5f5;fill-opacity:1;fill-rule:nonzero;stroke:none"
         id="text172"><tspan
           x="0"
           y="0"
           id="tspan170">̥</tspan></text><text
         transform="matrix(0.98058067,0,-0.19611615,0.98058067,138,154.19922)"
         style="font-variant:normal;font-weight:normal;font-size:14.2775px;font-family:'DejaVu Serif';-inkscape-font-specification:DejaVuSerif;writing-mode:lr-tb;fill:#f5f5f5;fill-opacity:1;fill-rule:nonzero;stroke:none"
         id="text176"><tspan
           x="0 12.207266 20.630993 26.741764 35.136936"
           y="0"
           id="tspan174">water</tspan></text><path
         d="m 159,65.039 c 0,8.129 0,17.086 0,25.695"
         style="fill:none;stroke:#00a651;stroke-width:1;stroke-linecap:butt;stroke-linejoin:miter;stroke-miterlimit:10;stroke-dasharray:none;stroke-opacity:1"
         id="path178" /><path
         d="m 162.5,90.98 -3.5,10 -3.5,-10 z"
         style="fill:#00a651;fill-opacity:1;fill-rule:nonzero;stroke:#00a651;stroke-width:1;stroke-linecap:butt;stroke-linejoin:miter;stroke-miterlimit:10;stroke-dasharray:none;stroke-opacity:1"
         id="path180" /><path
         d="m 159,162.039 c 0,8.129 0,17.086 0,25.695"
         style="fill:none;stroke:#0081c8;stroke-width:1;stroke-linecap:butt;stroke-linejoin:miter;stroke-miterlimit:10;stroke-dasharray:none;stroke-opacity:1"
         id="path182" /><path
         d="m 162.5,187.98 -3.5,10 -3.5,-10 z"
         style="fill:#0081c8;fill-opacity:1;fill-rule:nonzero;stroke:#0081c8;stroke-width:1;stroke-linecap:butt;stroke-linejoin:miter;stroke-miterlimit:10;stroke-dasharray:none;stroke-opacity:1"
         id="path184" /><text
         transform="translate(70.5,628.19922)"
         style="font-variant:normal;font-weight:normal;font-size:14.0002px;font-family:'DejaVu Serif';-inkscape-font-specification:DejaVuSerif;writing-mode:lr-tb;fill:#f5f5f5;fill-opacity:1;fill-rule:nonzero;stroke:none"
         id="text188"><tspan
           x="0 10.486183 19.50234 28.462496 32.970573 37.436653 44.954784 53.97094"
           y="0"
           id="tspan186">English </tspan></text><text
         transform="matrix(0.98058067,0,-0.19611615,0.98058067,129.5,628.19922)"
         style="font-variant:normal;font-weight:normal;font-size:14.2775px;font-family:'DejaVu Serif';-inkscape-font-specification:DejaVuSerif;writing-mode:lr-tb;fill:#f5f5f5;fill-opacity:1;fill-rule:nonzero;stroke:none"
         id="text192"><tspan
           x="0 5.354064 14.548776 22.943949 32.13866 41.290539"
           y="0"
           id="tspan190">(noun)</tspan></text><text
         transform="translate(79.5,651)"
         style="font-variant:normal;font-weight:bold;font-size:24.9998px;font-family:'DejaVu Serif';-inkscape-font-specification:DejaVuSerif-Bold;writing-mode:lr-tb;fill:#f5f5f5;fill-opacity:1;fill-rule:nonzero;stroke:none"
         id="text196"><tspan
           x="0 21.724789 38.199627 49.424519 65.174362"
           y="0"
           id="tspan194">water</tspan></text><text
         transform="translate(158.5,647.33594)"
         style="font-variant:normal;font-weight:normal;font-size:11.666px;font-family:'DejaVu Serif';-inkscape-font-specification:DejaVuSerif;writing-mode:lr-tb;fill:#f5f5f5;fill-opacity:1;fill-rule:nonzero;stroke:none"
         id="text200"><tspan
           x="0"
           y="0"
           id="tspan198">1</tspan></text><text
         transform="matrix(0.98058067,0,-0.19611615,0.98058067,30.5,667.19922)"
         style="font-variant:normal;font-weight:normal;font-size:14.2775px;font-family:'DejaVu Serif';-inkscape-font-specification:DejaVuSerif;writing-mode:lr-tb;fill:#f5f5f5;fill-opacity:1;fill-rule:nonzero;stroke:none"
         id="text206"><tspan
           x="0 9.9371424 14.520221 22.158686 31.353397 40.491001 48.15802 54.268791 62.678242 71.872955 79.511414 87.906586 92.48967 97.829453 106.25318 111.60725 116.17605 129.93956 138.34901 142.90353 151.34154 158.98 168.17471 172.72923 181.15297"
           y="0"
           id="tspan202">A substance (of molecular</tspan><tspan
           x="-4.2831798 1.0708841 9.4803333 16.362091 30.125605 39.320316 43.87484 52.298565 56.867367"
           y="14.277261"
           id="tspan204">formula H</tspan></text><text
         transform="matrix(0.98058067,0,-0.19611615,0.98058067,95.46125,681.19922)"
         style="font-variant:normal;font-weight:normal;font-size:14.2775px;font-family:'DejaVu Serif';-inkscape-font-specification:DejaVuSerif;writing-mode:lr-tb;fill:#f5f5f5;fill-opacity:1;fill-rule:nonzero;stroke:none"
         id="text210"><tspan
           x="0"
           y="0"
           id="tspan208">₂</tspan></text><text
         transform="matrix(0.98058067,0,-0.19611615,0.98058067,100.69734,681.19922)"
         style="font-variant:normal;font-weight:normal;font-size:14.2775px;font-family:'DejaVu Serif';-inkscape-font-specification:DejaVuSerif;writing-mode:lr-tb;fill:#f5f5f5;fill-opacity:1;fill-rule:nonzero;stroke:none"
         id="text228"><tspan
           x="0 11.464835 16.818899 21.401978 26.741764 35.165493 44.360203 53.512085 62.692516 67.275597 75.685043 81.78154 86.364616 93.246376 101.65582 110.06528"
           y="0"
           id="tspan212">O) found at room</tspan><tspan
           x="-87.59845 -81.487679 -73.092506 -59.328995 -50.14856 -41.753387 -34.857353 -26.447905 -20.35141 -11.156698 -4.2892189 4.1487856 8.6747541 17.098482 26.293194 35.430798 40.028152 49.208588 56.090343 64.528351 72.13826 79.791 88.98571 95.853188 104.24836 108.83144 117.24089 124.87936 129.46243"
           y="14.277261"
           id="tspan214">temperature and pressure as a</tspan><tspan
           x="-61.28751 -53.634769 -49.080246 -40.642242 -32.24707 -25.365313 -20.796513 -16.241987 -11.630355 -2.4927521 6.7019601 11.299316 20.436918 25.048552 29.63163 34.186153 40.311203 44.880005 49.434528 57.115826 61.684628 70.865059 77.746819 86.141991 93.794731 102.1899 111.38461"
           y="28.554522"
           id="tspan216">clear liquid; it is present</tspan><tspan
           x="-70.159813 -60.965096 -52.569923 -46.459152 -37.264442 -30.396961 -21.987513 -17.432989 -12.835632 -4.4404607 0.14261799 8.5520678 16.190533 20.773611 27.655367 36.064816 40.619339 49.814053 54.397133 58.980209 67.389656 76.584373 85.721977 90.319328 95.673393 104.08284 113.27756 122.42944"
           y="42.831783"
           id="tspan218">naturally as rain, and found</tspan><tspan
           x="-67.814255 -63.259735 -54.065022 -49.481945 -42.600185 -38.045662 -29.621937 -21.226765 -14.33073 -6.6922655 -2.1091871 2.459614 7.0141377 15.452143 23.847315 32.28532 39.895229 44.478306 52.887756 62.08247 71.22007 75.817429 83.455894 91.893898 100.27479 107.92754 112.49633 117.07941 121.63393 127.75899"
           y="57.109043"
           id="tspan220">in rivers, lakes and seas; its</tspan><tspan
           x="-48.13205 -40.479305 -32.069859 -27.515333 -22.917978 -13.737542 -9.1687412 -3.8146777 4.5947719 11.476528 25.240042 29.82312 34.377644 42.044662 46.627743 51.182266 58.849285 67.244461 71.827538 80.236984 89.431694 98.569298 103.16666 107.72118 113.84623"
           y="71.386307"
           id="tspan222">solid form is ice and its</tspan><tspan
           x="-17.741898 -8.5614624 -0.15201259 7.4864516 15.924457 24.305351 33.500065 41.124249 45.707329 51.061394 59.47084 66.3526 80.116112 84.699188 89.253716"
           y="85.663567"
           id="tspan224">gaseous form is</tspan><tspan
           x="17.74728 25.400021 31.496515 39.934521 48.315414 62.078926"
           y="99.940826"
           id="tspan226">steam.</tspan></text><path
         d="m 123,571.117 c 0,9.84 0,20.957 0,32.43"
         style="fill:none;stroke:#00a651;stroke-width:1;stroke-linecap:butt;stroke-linejoin:miter;stroke-miterlimit:10;stroke-dasharray:none;stroke-opacity:1"
         id="path230" /><path
         d="m 126.5,603.699 -3.5,10 -3.5,-10 z"
         style="fill:#00a651;fill-opacity:1;fill-rule:nonzero;stroke:#00a651;stroke-width:1;stroke-linecap:butt;stroke-linejoin:miter;stroke-miterlimit:10;stroke-dasharray:none;stroke-opacity:1"
         id="path232" /></g></g></svg>
