<?xml version="1.0" encoding="UTF-8" standalone="no"?>
<!DOCTYPE svg PUBLIC "-//W3C//DTD SVG 1.1//EN"
 "http://www.w3.org/Graphics/SVG/1.1/DTD/svg11.dtd">
<!-- Generated by graphviz version 2.43.0 (0)
 -->
<!-- Title: G Pages: 1 -->
<svg width="294pt" height="129pt"
 viewBox="0.00 0.00 293.59 128.85" xmlns="http://www.w3.org/2000/svg" xmlns:xlink="http://www.w3.org/1999/xlink">
<g id="graph0" class="graph" transform="scale(1 1) rotate(0) translate(4 124.85)">
<title>G</title><style>.edge>path:hover{stroke-width:8}</style>
<polygon fill="white" stroke="transparent" points="-4,4 -4,-124.85 289.59,-124.85 289.59,4 -4,4"/>
<!-- etyviz_core -->
<g id="node1" class="node">
<title>etyviz_core</title><style>.edge>path:hover{stroke-width:8}</style>
<ellipse fill="#c24747" stroke="black" cx="41.8" cy="-99.64" rx="41.59" ry="18"/>
<text text-anchor="middle" x="41.8" y="-97.14" font-family="Helvetica,sans-Serif" font-size="10.00" fill="#ffffff">etyviz.core</text>
</g>
<!-- etyviz_ui -->
<g id="node4" class="node">
<title>etyviz_ui</title><style>.edge>path:hover{stroke-width:8}</style>
<ellipse fill="#ac4949" stroke="black" cx="41.8" cy="-21.21" rx="34.96" ry="18"/>
<text text-anchor="middle" x="41.8" y="-18.71" font-family="Helvetica,sans-Serif" font-size="10.00" fill="#ffffff">etyviz.ui</text>
</g>
<!-- etyviz_core&#45;&gt;etyviz_ui -->
<g id="edge1" class="edge">
<title>etyviz_core&#45;&gt;etyviz_ui</title><style>.edge>path:hover{stroke-width:8}</style>
<path fill="none" stroke="black" d="M41.8,-81.3C41.8,-71.85 41.8,-59.95 41.8,-49.31"/>
<polygon fill="#c24747" stroke="black" points="45.3,-49.22 41.8,-39.22 38.3,-49.22 45.3,-49.22"/>
</g>
<!-- etyviz_file_utils -->
<g id="node2" class="node">
<title>etyviz_file_utils</title><style>.edge>path:hover{stroke-width:8}</style>
<ellipse fill="#c04040" stroke="black" cx="142.8" cy="-99.64" rx="41.02" ry="21.43"/>
<text text-anchor="middle" x="142.8" y="-102.64" font-family="Helvetica,sans-Serif" font-size="10.00" fill="#ffffff">etyviz.</text>
<text text-anchor="middle" x="142.8" y="-91.64" font-family="Helvetica,sans-Serif" font-size="10.00" fill="#ffffff">file_utils</text>
</g>
<!-- etyviz_lite_file -->
<g id="node3" class="node">
<title>etyviz_lite_file</title><style>.edge>path:hover{stroke-width:8}</style>
<ellipse fill="#a44646" stroke="black" cx="192.8" cy="-21.21" rx="37.45" ry="21.43"/>
<text text-anchor="middle" x="192.8" y="-24.21" font-family="Helvetica,sans-Serif" font-size="10.00" fill="#ffffff">etyviz.</text>
<text text-anchor="middle" x="192.8" y="-13.21" font-family="Helvetica,sans-Serif" font-size="10.00" fill="#ffffff">lite_file</text>
</g>
<!-- etyviz_file_utils&#45;&gt;etyviz_lite_file -->
<g id="edge2" class="edge">
<title>etyviz_file_utils&#45;&gt;etyviz_lite_file</title><style>.edge>path:hover{stroke-width:8}</style>
<path fill="none" stroke="black" d="M155.41,-79.35C161.26,-70.42 168.32,-59.63 174.72,-49.85"/>
<polygon fill="#c04040" stroke="black" points="177.81,-51.51 180.36,-41.23 171.95,-47.68 177.81,-51.51"/>
</g>
<!-- etyviz_utils -->
<g id="node5" class="node">
<title>etyviz_utils</title><style>.edge>path:hover{stroke-width:8}</style>
<ellipse fill="#c24747" stroke="black" cx="243.8" cy="-99.64" rx="41.59" ry="18"/>
<text text-anchor="middle" x="243.8" y="-97.14" font-family="Helvetica,sans-Serif" font-size="10.00" fill="#ffffff">etyviz.utils</text>
</g>
<!-- etyviz_utils&#45;&gt;etyviz_lite_file -->
<g id="edge3" class="edge">
<title>etyviz_utils&#45;&gt;etyviz_lite_file</title><style>.edge>path:hover{stroke-width:8}</style>
<path fill="none" stroke="black" d="M232.73,-82.06C226.39,-72.56 218.29,-60.42 211.04,-49.55"/>
<polygon fill="#c24747" stroke="black" points="213.92,-47.56 205.46,-41.19 208.1,-51.45 213.92,-47.56"/>
</g>
</g>
</svg>
